<svg width="134" height="24" viewBox="0 0 134 24" fill="none" xmlns="http://www.w3.org/2000/svg">
<path d="M13.4431 11.622H1.70605V0.954956C8.18805 0.954956 13.4431 5.73096 13.4431 11.622ZM25.1801 11.622V0.954956C18.6981 0.954956 13.4431 5.73096 13.4431 11.622H25.1801ZM13.4431 22.288H1.70605V11.622C8.18805 11.622 13.4431 16.397 13.4431 22.288ZM13.4431 22.288H25.1801V11.622C18.6981 11.622 13.4431 16.397 13.4431 22.288Z" fill="#222222"/>
<path d="M42.9931 22.288C40.7391 22.288 38.7671 21.572 37.1901 20.112C35.5841 18.679 34.5701 16.093 34.5701 12.791C34.5701 6.95398 38.3451 3.59998 42.9931 3.59998C47.5841 3.59998 51.3311 7.03098 51.3311 12.868C51.3311 16.17 50.3451 18.73 48.7671 20.164C47.1621 21.597 45.2181 22.288 42.9931 22.288ZM48.3731 19.165V6.77498H37.5281V19.165H48.3731Z" fill="#222222"/>
<path d="M61.593 21.9041H58.748L52.748 8.33606H55.65L59.734 18.7811H60.692L64.748 8.33606H67.593L61.593 21.9041Z" fill="#222222"/>
<path d="M79.2941 17.578H82.0831C82.0831 20.061 79.4921 22.288 75.2941 22.288C71.1541 22.288 68.3081 19.447 68.3081 15.12C68.3081 10.794 71.1821 7.95203 75.1541 7.95203C79.1251 7.95203 81.9141 10.717 81.9141 15.12V15.863H71.1251V19.242H79.2941V17.578ZM71.1541 13.917H79.1541V10.948H71.1541V13.917Z" fill="#222222"/>
<path d="M87.3299 21.904H84.5969V8.33596H87.2169V9.79596H87.2729C87.8649 8.74596 89.1039 8.10596 90.3439 8.10596C91.4989 8.10596 93.5829 8.64396 93.5829 11.076H87.3299V21.904Z" fill="#222222"/>
<path d="M97.0541 17.6551V11.2801H94.2371V8.33606H97.1101V5.00806H99.7301V8.33606H102.716V11.2801H99.7591V18.7301H102.716V21.9041H101.477C98.2371 21.9041 97.0541 20.5221 97.0541 17.6551Z" fill="#222222"/>
<path d="M111.213 22.288C107.242 22.288 104.368 19.626 104.368 15.12C104.368 10.692 107.355 7.95203 111.213 7.95203C115.016 7.95203 117.974 10.692 117.974 15.12C117.974 19.626 115.157 22.288 111.213 22.288ZM115.27 18.756V11.562H107.073V18.756H115.27Z" fill="#222222"/>
<path d="M132.516 13.098V21.904H129.784V11.076H123.39V21.904H120.657V8.33603H123.39V9.64203H123.446C124.375 8.51603 125.643 7.95203 127.39 7.95203C130.685 7.95203 132.516 9.74403 132.516 13.098Z" fill="#222222"/>
</svg>
